<svg id="bold" enable-background="new 0 0 24 24" height="512" viewBox="0 0 24 24" width="512" xmlns="http://www.w3.org/2000/svg"><path d="m15 16h-6.5c-1.654 0-3-1.346-3-3 0-1.458 1.044-2.675 2.424-2.945.52-1.777 2.178-3.055 4.076-3.055 1.499 0 2.885.797 3.643 2.063 1.633.298 2.857 1.731 2.857 3.437 0 1.93-1.57 3.5-3.5 3.5z"/><path d="m20.72.22-1.914 1.914c-1.971-1.37-4.322-2.134-6.806-2.134-6.617 0-12 5.383-12 12 0 1.172.172 2.338.512 3.466.118.391.531.622.935.502.396-.12.621-.538.502-.935-.298-.987-.449-2.008-.449-3.033 0-5.79 4.71-10.5 10.5-10.5 2.08 0 4.055.607 5.732 1.708l-1.512 1.512c-.471.471-.136 1.28.53 1.28h4.5c.414 0 .75-.336.75-.75v-4.5c0-.668-.81-1.001-1.28-.53z"/><path d="m23.488 8.534c-.119-.396-.539-.62-.935-.502-.396.12-.621.538-.502.935.298.987.449 2.008.449 3.033 0 5.79-4.71 10.5-10.5 10.5-2.075 0-4.048-.604-5.722-1.701l1.505-1.522c.468-.473.132-1.277-.533-1.277h-4.5c-.2 0-.393.08-.533.223-.141.142-.219.335-.217.535l.05 4.5c.008.666.819.99 1.283.519l1.878-1.899c1.967 1.362 4.312 2.122 6.789 2.122 6.617 0 12-5.383 12-12 0-1.172-.172-2.338-.512-3.466z"/></svg>