<svg id="Capa_1" enable-background="new 0 0 512 512" height="512" viewBox="0 0 512 512" width="512" xmlns="http://www.w3.org/2000/svg" xmlns:xlink="http://www.w3.org/1999/xlink"><linearGradient id="lg1"><stop offset="0" stop-color="#addcff"/><stop offset=".5028" stop-color="#eaf6ff"/><stop offset="1" stop-color="#eaf6ff"/></linearGradient><linearGradient id="SVGID_1_" gradientUnits="userSpaceOnUse" x1="256" x2="256" xlink:href="#lg1" y1="496" y2="76"/><linearGradient id="SVGID_2_" gradientUnits="userSpaceOnUse" x1="256" x2="256" y1="436" y2="16"><stop offset="0" stop-color="#5558ff"/><stop offset="1" stop-color="#00c0ff"/></linearGradient><linearGradient id="SVGID_3_" gradientUnits="userSpaceOnUse" x1="136" x2="136" xlink:href="#lg1" y1="76" y2="16"/><g><path d="m497 496h-482c-8.284 0-15-6.716-15-15v-375c0-16.569 13.431-30 30-30h452c16.569 0 30 13.431 30 30v375c0 8.284-6.716 15-15 15z" fill="url(#SVGID_1_)"/><g><g><path d="m497 16h-286l-15.209 11.488-14.791-11.488h-30l-15.099 12.046-14.901-12.046h-30l-14.789 11.327-15.211-11.327h-46c-8.401 0-15 6.599-15 15v75h512v-75c0-8.401-6.599-15-15-15zm-61 150h-360c-8.291 0-15 6.709-15 15v90c0 8.291 6.709 15 15 15h360c8.291 0 15-6.709 15-15v-90c0-8.291-6.709-15-15-15zm-210 150h-150c-8.291 0-15 6.709-15 15v90c0 8.291 6.709 15 15 15h150c8.291 0 15-6.709 15-15v-90c0-8.291-6.709-15-15-15zm210 0h-150c-8.291 0-15 6.709-15 15v90c0 8.291 6.709 15 15 15h150c8.291 0 15-6.709 15-15v-90c0-8.291-6.709-15-15-15z" fill="url(#SVGID_2_)"/></g></g><g><g><path d="m61 61c0 8.399 6.599 15 15 15s15-6.601 15-15v-45h-30zm60 0c0 8.399 6.599 15 15 15s15-6.601 15-15v-45h-30zm60-45v45c0 8.399 6.599 15 15 15s15-6.601 15-15v-45z" fill="url(#SVGID_3_)"/></g></g></g></svg>